<svg width="18" height="18" viewBox="0 0 18 18" fill="none" xmlns="http://www.w3.org/2000/svg">
<g clip-path="url(#clip0_20330_13460)">
<path d="M14.577 5.81514C14.4454 5.44764 13.9961 4.47752 12.6015 3.11027C11.1236 1.66127 10.1002 1.25327 9.7815 1.15352C9.14619 1.13403 8.51061 1.12453 7.875 1.12502C5.526 1.12502 3.91275 1.24502 2.907 1.36014C2.08162 1.45464 1.46325 2.07377 1.3725 2.89952C1.2525 3.98327 1.125 5.80239 1.125 8.62502C1.125 11.4476 1.25288 13.2668 1.3725 14.3505C1.46325 15.1763 2.08162 15.7954 2.907 15.8899C3.61875 15.9713 4.63462 16.0549 6 16.0973" stroke="#306FD2" stroke-width="1.125" stroke-linecap="round" stroke-linejoin="round"/>
<path d="M14.5827 5.98609C13.8001 6.10272 12.3923 6.01309 11.3239 5.91447C10.9167 5.87811 10.5351 5.70024 10.2454 5.41176C9.95565 5.12328 9.77615 4.74241 9.73806 4.33534C9.63756 3.28459 9.54831 1.91059 9.67056 1.15234" stroke="#306FD2" stroke-width="1.125" stroke-linecap="round" stroke-linejoin="round"/>
<path d="M15.3741 12.8467C15.3741 12.8467 15.1967 12.0563 14.1321 10.992C13.0678 9.92738 12.2773 9.75 12.2773 9.75" stroke="#306FD2" stroke-width="1.125" stroke-linecap="round" stroke-linejoin="round"/>
<path d="M3.75 4.875L5.25 6.375L7.125 3.75" stroke="#306FD2" stroke-width="1.125" stroke-linecap="round" stroke-linejoin="round"/>
<path d="M3.75 9L5.25 10.5L7.125 7.875" stroke="#306FD2" stroke-width="1.125" stroke-linecap="round" stroke-linejoin="round"/>
<path d="M16.3743 11.8472C16.9196 11.3024 17.1281 10.5059 16.6721 9.88411C16.4707 9.61187 16.2488 9.35538 16.0083 9.11686C15.7308 8.83936 15.4721 8.62261 15.2407 8.45311C14.6193 7.99711 13.8228 8.20561 13.2776 8.75049L8.65009 13.378C8.44647 13.582 8.30697 13.8404 8.28297 14.128C8.25034 14.5184 8.22634 15.1817 8.28934 16.1635C8.30056 16.3381 8.375 16.5027 8.49875 16.6265C8.62249 16.7502 8.78708 16.8246 8.96172 16.8359C9.94309 16.8989 10.6068 16.8749 10.9972 16.8419C11.2845 16.8179 11.5432 16.6787 11.7472 16.4744L16.3743 11.8472Z" stroke="#306FD2" stroke-width="1.125" stroke-linecap="round" stroke-linejoin="round"/>
</g>
<defs>
<clipPath id="clip0_20330_13460">
<rect width="18" height="18" fill="white"/>
</clipPath>
</defs>
</svg>
